<svg xmlns="http://www.w3.org/2000/svg" viewBox="0 0 2495.35 2500"><defs><style>.cls-1{fill:#5e91ff;}.cls-2{fill:#fff;}</style></defs><title>Ресурс 1</title><g id="Слой_2" data-name="Слой 2"><g id="Layer_1" data-name="Layer 1"><ellipse class="cls-1" cx="1247.67" cy="1250" rx="1247.67" ry="1250"/><path class="cls-2" d="M628.66,1109.25H903a39.18,39.18,0,0,1,39.22,39.22v630A39.18,39.18,0,0,1,903,1817.67H628.66a39.18,39.18,0,0,1-39.22-39.22V1148.3A39.26,39.26,0,0,1,628.66,1109.25Zm409.47,560.36V1218.26A597.15,597.15,0,0,1,1128,903.85c35.73-57.17,115.83-148.73,160.7-196.09,10-10.64,46.2-41.88,46.2-59,0-21.94,2.49-57.33,3.32-123.3.5-41.88,34.57-76.28,76.44-75.94h1.83c73.28,1.33,96.72,69.13,96.72,69.13s62.65,123.64,4.15,274.86C1468,921.3,1457.89,931.6,1457.89,931.6s-16,23.1,34.57,22.1c0,0,308.43-1.33,319.06-1.33,22.77,0,95.39,20.77,91.23,113.33-3,68.47-45.53,92.4-67.3,100.21a5.28,5.28,0,0,0-3.16,7,5.87,5.87,0,0,0,2.49,2.83c22.27,13,67.8,45.7,66.8,95.89-1.33,60.82-25.76,83.26-76.61,97.21a5.24,5.24,0,0,0-3.82,6.48,5.16,5.16,0,0,0,2.49,3.32c19.28,11,52.35,37.72,50.35,91.9-2,55.17-41.88,74.61-63.65,81.26a5.39,5.39,0,0,0-3.66,6.65,5.62,5.62,0,0,0,2.16,3c13.79,9.47,34.23,30.91,33.24,74.95-.5,23.27-8.31,40.22-18.11,52.35-15.45,19.11-39.72,29.08-64.31,29.25l-684.33,1.33c-.17-.17-37.22,0-37.22-49.69Z"/></g></g></svg>