<svg xmlns="http://www.w3.org/2000/svg" viewBox="0 0 107.42 107.42"><defs><style>.cls-1{fill:#6da9e0;}</style></defs><title>Ресурс 5</title><g id="Слой_2" data-name="Слой 2"><g id="Слой_1-2" data-name="Слой 1"><path class="cls-1" d="M53.71,0a53.71,53.71,0,1,0,53.71,53.71A53.7,53.7,0,0,0,53.71,0ZM90.28,74.39a4.91,4.91,0,0,1-2.39.66c-3,.06-6.12,0-9.16.19-3.39.23-5.92-1.22-8.1-3.57-1.45-1.55-2.84-3.16-4.31-4.71a8.82,8.82,0,0,0-1.71-1.39,2.14,2.14,0,0,0-3.11.65,6.75,6.75,0,0,0-1.14,3A22.06,22.06,0,0,0,60.1,72c-.06,1.67-.79,2.53-2.47,2.55-2.38,0-4.77.07-7.14-.08a22,22,0,0,1-7.45-2,30,30,0,0,1-11.29-9,91.57,91.57,0,0,1-8.15-12.2A151.81,151.81,0,0,1,16.35,37a4.08,4.08,0,0,1-.31-1.2,1.09,1.09,0,0,1,.82-1.34,6.62,6.62,0,0,1,1.81-.32c3.47,0,6.93,0,10.39,0A3.29,3.29,0,0,1,32,36.19c1.13,2.46,2.23,5,3.5,7.34a42.29,42.29,0,0,0,5.15,7.89A8.52,8.52,0,0,0,42.4,53a1.54,1.54,0,0,0,2.41-.72,9.22,9.22,0,0,0,.73-2.92,49.83,49.83,0,0,0,.06-8.55,15.56,15.56,0,0,0-.31-2,4.09,4.09,0,0,0-3.4-3.39l-.48-.09c-.43-.07-.52-.2-.29-.58a4,4,0,0,1,2-1.69,9.8,9.8,0,0,1,3.54-.71c2.49-.08,5-.13,7.47-.07a18.43,18.43,0,0,1,3.54.51,2.89,2.89,0,0,1,2.41,2.85,23.23,23.23,0,0,1,.1,2.5c0,1.53-.08,3.07-.13,4.6h-.11c0,1.94,0,3.88,0,5.82a8.34,8.34,0,0,0,.41,3,4.37,4.37,0,0,0,.76,1.26,1,1,0,0,0,1.52.25,9.13,9.13,0,0,0,1.76-1.39A29.39,29.39,0,0,0,67.84,47a62.58,62.58,0,0,0,5.57-11,4.5,4.5,0,0,1,.4-.79,2.08,2.08,0,0,1,2-1l11.59,0a14.91,14.91,0,0,1,2.41.1c1.35.22,1.81,1,1.54,2.36a12.3,12.3,0,0,1-1.51,3.63,80.38,80.38,0,0,1-6.32,9.11q-1.71,2.25-3.38,4.53a9.2,9.2,0,0,0-.73,1.3,2.68,2.68,0,0,0,.32,3.1A36.41,36.41,0,0,0,82.33,61a62.52,62.52,0,0,1,6.39,6.63,35.21,35.21,0,0,1,2.15,3.21,3.9,3.9,0,0,1,.49,1.35A2,2,0,0,1,90.28,74.39Z"/></g></g></svg>