<svg xmlns="http://www.w3.org/2000/svg" viewBox="0 0 111.85 111.33"><defs><style>.cls-1{fill:#5b6796;}</style></defs><title>Ресурс 4</title><g id="Слой_2" data-name="Слой 2"><g id="Слой_1-2" data-name="Слой 1"><path class="cls-1" d="M62.78,111.33c26.4-2.72,51.51-27.11,48.89-60.12A55.93,55.93,0,1,0,.41,62.68C2.17,77.35,9,89.44,20.24,98.91A54.21,54.21,0,0,0,46.52,111V67.59H33.17V52H46.55c0-.37,0-.61,0-.85,0-3.45,0-6.91,0-10.36A23.92,23.92,0,0,1,49,29.42c3.34-6.25,8.84-9.18,15.68-9.48,4.41-.2,8.85.23,13.28.36.61,0,.76.29.75.86,0,4.16,0,8.32,0,12.47,0,.21,0,.42-.07.75h-1c-2.9,0-5.81,0-8.71.11-3.67.15-5.73,2-6,5.58-.27,3.13-.14,6.29-.18,9.43,0,.79,0,1.57,0,2.5H78.17c0,.29,0,.44,0,.59-.6,4.63-1.24,9.26-1.78,13.9-.11.93-.4,1.13-1.27,1.12-3.76,0-7.52,0-11.28,0-.33,0-.65,0-1,0Z"/><path class="cls-1" d="M62.78,111.33V67.64c.37,0,.69,0,1,0,3.76,0,7.52,0,11.28,0,.88,0,1.17-.2,1.27-1.12.54-4.64,1.18-9.27,1.78-13.9,0-.15,0-.3,0-.59H62.72c0-.92,0-1.71,0-2.5,0-3.15-.08-6.31.18-9.43.31-3.63,2.37-5.43,6-5.58,2.9-.12,5.81-.08,8.71-.11h1c0-.33.07-.54.07-.75,0-4.16,0-8.32,0-12.47,0-.56-.14-.84-.75-.86-4.43-.13-8.86-.56-13.28-.36-6.84.3-12.34,3.23-15.68,9.48a23.92,23.92,0,0,0-2.44,11.35c0,3.45,0,6.91,0,10.36,0,.24,0,.48,0,.85H33.17v15.6H46.52V111A54.21,54.21,0,0,1,20.24,98.91C9,89.44,2.17,77.35.41,62.68A55.93,55.93,0,1,1,111.66,51.21C114.29,84.21,89.18,108.6,62.78,111.33Z"/></g></g></svg>