<svg xmlns="http://www.w3.org/2000/svg" viewBox="0 0 107.42 107.43"><defs><style>.cls-1{fill:#6da9e0;}</style></defs><title>Ресурс 6</title><g id="Слой_2" data-name="Слой 2"><g id="Слой_1-2" data-name="Слой 1"><path class="cls-1" d="M53.71,0a53.71,53.71,0,1,0,53.71,53.71A53.71,53.71,0,0,0,53.71,0Zm37.4,36.47a19.3,19.3,0,0,1-4.86,4.24.61.61,0,0,0-.25.44c0,1.44,0,2.88-.1,4.32a40.55,40.55,0,0,1-4.07,15.39,38.17,38.17,0,0,1-3.47,6,49.69,49.69,0,0,1-7.54,8.41,39.17,39.17,0,0,1-19.09,9,43.5,43.5,0,0,1-11.22.59,41.88,41.88,0,0,1-17.77-5.41l-1.69-1a29.66,29.66,0,0,0,21.82-6.13,13.33,13.33,0,0,1-8.54-3A15.42,15.42,0,0,1,29,62a13.48,13.48,0,0,0,6.19-.26c-7.09-1.15-12.25-8.35-12-14.56,1.13.38,2.26.77,3.39,1.13a11.73,11.73,0,0,0,3.56.55,14,14,0,0,1-5.93-9.09A15.75,15.75,0,0,1,26,29.07c8.21,9.22,18.28,14.65,30.74,15.34-.06-.52-.14-1-.16-1.47a16.35,16.35,0,0,1,.56-6,14.18,14.18,0,0,1,9.26-9.61,14.72,14.72,0,0,1,14.22,2.38,8.24,8.24,0,0,1,1,1,.79.79,0,0,0,.84.31,26.67,26.67,0,0,0,6.21-2.07c.81-.38,1.59-.81,2.39-1.22a2,2,0,0,1,.26-.13,13.94,13.94,0,0,1-6.4,8.24,23.28,23.28,0,0,0,8.32-2.16l.07.08C92.55,34.62,91.86,35.57,91.11,36.47Z"/></g></g></svg>